<?xml version="1.0" encoding="UTF-8" standalone="no"?><!DOCTYPE svg PUBLIC "-//W3C//DTD SVG 1.1//EN" "http://www.w3.org/Graphics/SVG/1.1/DTD/svg11.dtd"><svg width="100%" height="100%" viewBox="0 0 64 64" version="1.1" xmlns="http://www.w3.org/2000/svg" xmlns:xlink="http://www.w3.org/1999/xlink" xml:space="preserve" xmlns:serif="http://www.serif.com/" style="fill-rule:evenodd;clip-rule:evenodd;stroke-linejoin:round;stroke-miterlimit:1.41421;"><g id="Deer"><path d="M0,57.009l0,-57.009l63.896,0l0,57.888c-4.909,-6.499 -17.531,-11.125 -32.304,-11.125c-14.087,0 -26.219,4.206 -31.592,10.246Z" style="fill:#63a7e2;"/><g><path d="M0,57.009c5.373,-6.04 17.505,-10.246 31.592,-10.246c14.773,0 27.395,4.626 32.304,11.125l0,6.112l-63.896,0l0,-6.991Z" style="fill:#fff;"/><g><g><path d="M54.453,47.855c-1.304,2.091 -3.08,3.342 -3.963,2.791c-0.883,-0.55 -0.54,-2.695 0.764,-4.786c1.305,-2.092 3.081,-3.342 3.963,-2.792c0.883,0.551 0.541,2.696 -0.764,4.787Z" style="fill:#fff;"/><path d="M53.699,48.16c-0.927,1.487 -2.19,2.376 -2.818,1.985c-0.627,-0.392 -0.384,-1.917 0.544,-3.404c0.927,-1.486 2.19,-2.376 2.818,-1.984c0.627,0.391 0.384,1.916 -0.544,3.403Z" style="fill:#d9d9d9;"/></g><g><path d="M41.368,41.312c-0.396,-2.971 -0.646,-5.752 -0.366,-7.846c0.327,1.24 0.802,2.221 1.524,2.77c-0.12,1.181 0.156,2.102 0.54,2.951c-0.266,0.562 -0.271,1.1 0.01,1.612l-1.708,0.513Z" style="fill:#fff;"/><path d="M53.403,37.576c-0.876,-2.398 -1.771,-5.075 -3.074,-13.951c-1.277,-2.631 -3.011,-6.564 -5.019,-11.281c2.253,2.26 4.59,5.408 7.336,12.833c1.173,5.108 1.518,9.003 1.894,12.057l-1.137,0.342Z" style="fill:#fff;"/><path d="M48.333,39.203l0.007,-5.556l-4.093,-9.925l3.655,3.832l2.621,8.235l0.479,2.612l-2.669,0.802Z" style="fill:#fff;"/><path d="M55.527,34.301c-5.231,-1.184 -10.441,-3.075 -15.478,-5.744l1.585,2.195c1.093,1.25 3.071,1.906 5.241,2.768c1.856,-0.088 3.72,0.268 5.596,1.223c1.314,0.612 2.463,1.296 3.3,2.118l-0.244,-2.56Z" style="fill:#fff;"/><path d="M34.169,46.756c0.879,0.922 23.146,-4.671 24.28,-8.073c0.836,-2.508 0.222,-7.726 -0.759,-12.195c-2.377,-13.071 -8.785,-19.946 -11.56,-21.682c3.44,6.211 7.425,10.2 8.311,19.066c0.145,4.145 0.908,9.623 1.361,12.983l-17.346,5.21c-5.395,4.007 -4.458,4.058 -4.287,4.691" style="fill:#fff;"/></g></g><g><g><path d="M9.389,47.855c1.304,2.091 3.08,3.342 3.963,2.791c0.883,-0.55 0.54,-2.695 -0.764,-4.786c-1.305,-2.092 -3.081,-3.342 -3.964,-2.792c-0.882,0.551 -0.54,2.696 0.765,4.787Z" style="fill:#fff;"/><path d="M10.143,48.16c0.927,1.487 2.19,2.376 2.818,1.985c0.627,-0.392 0.384,-1.917 -0.544,-3.404c-0.927,-1.486 -2.19,-2.376 -2.818,-1.984c-0.627,0.391 -0.384,1.916 0.544,3.403Z" style="fill:#d9d9d9;"/></g><g><path d="M22.474,41.312c0.396,-2.971 0.646,-5.752 0.366,-7.846c-0.327,1.24 -0.802,2.221 -1.524,2.77c0.12,1.181 -0.156,2.102 -0.54,2.951c0.266,0.562 0.271,1.1 -0.01,1.612l1.708,0.513Z" style="fill:#fff;"/><path d="M10.439,37.576c0.876,-2.398 1.771,-5.075 3.074,-13.951c1.277,-2.631 3.011,-6.564 5.019,-11.281c-2.253,2.26 -4.591,5.408 -7.336,12.833c-1.173,5.108 -1.519,9.003 -1.894,12.057l1.137,0.342Z" style="fill:#fff;"/><path d="M15.509,39.203l-0.007,-5.556l4.093,-9.925l-3.655,3.832l-2.621,8.235l-0.479,2.612l2.669,0.802Z" style="fill:#fff;"/><path d="M8.314,34.301c5.232,-1.184 10.442,-3.075 15.479,-5.744l-1.586,2.195c-1.093,1.25 -3.07,1.906 -5.24,2.768c-1.856,-0.088 -3.72,0.268 -5.596,1.223c-1.314,0.612 -2.463,1.296 -3.3,2.118l0.243,-2.56Z" style="fill:#fff;"/><path d="M29.673,46.756c-0.879,0.922 -23.146,-4.671 -24.28,-8.073c-0.836,-2.508 -0.222,-7.726 0.759,-12.195c2.377,-13.071 8.785,-19.946 11.56,-21.682c-3.44,6.211 -7.425,10.2 -8.311,19.066c-0.145,4.145 -0.908,9.623 -1.361,12.983l17.346,5.21c5.395,4.007 4.458,4.058 4.287,4.691" style="fill:#fff;"/></g></g></g></g></svg>