<?xml version="1.0" encoding="UTF-8" standalone="no"?><!DOCTYPE svg PUBLIC "-//W3C//DTD SVG 1.1//EN" "http://www.w3.org/Graphics/SVG/1.1/DTD/svg11.dtd"><svg width="100%" height="100%" viewBox="0 0 64 64" version="1.1" xmlns="http://www.w3.org/2000/svg" xmlns:xlink="http://www.w3.org/1999/xlink" xml:space="preserve" xmlns:serif="http://www.serif.com/" style="fill-rule:evenodd;clip-rule:evenodd;stroke-linejoin:round;stroke-miterlimit:1.41421;"><g id="Rabbit"><path d="M0,57.009l0,-57.009l64,0l0,57.888c-4.917,-6.499 -17.56,-11.125 -32.357,-11.125c-14.11,0 -26.261,4.206 -31.643,10.246Z" style="fill:#63a7e2;"/><g><path d="M0,57.009c5.382,-6.04 17.533,-10.246 31.643,-10.246c14.797,0 27.44,4.626 32.357,11.125l0,6.112l-64,0l0,-6.991Z" style="fill:#fff;"/><g><path d="M49.379,19.844c3.294,0.626 3.857,8.529 1.257,17.638c-2.601,9.109 -7.387,15.996 -10.681,15.37c-3.295,-0.625 -3.858,-8.529 -1.257,-17.638c2.6,-9.109 7.386,-15.996 10.681,-15.37Z" style="fill:#fff;"/><path d="M47.346,26.549c1.514,0.287 1.234,5.805 -0.624,12.313c-1.858,6.508 -4.596,11.559 -6.109,11.272c-1.514,-0.288 -1.234,-5.805 0.624,-12.314c1.858,-6.508 4.596,-11.559 6.109,-11.271Z" style="fill:#d9d9d9;"/></g><g><path d="M14.892,19.844c-3.295,0.626 -3.858,8.529 -1.257,17.638c2.6,9.109 7.386,15.996 10.681,15.37c3.294,-0.625 3.857,-8.529 1.257,-17.638c-2.601,-9.109 -7.387,-15.996 -10.681,-15.37Z" style="fill:#fff;"/><path d="M16.924,26.549c-1.513,0.287 -1.233,5.805 0.625,12.313c1.858,6.508 4.595,11.559 6.109,11.272c1.513,-0.288 1.233,-5.805 -0.625,-12.314c-1.858,-6.508 -4.595,-11.559 -6.109,-11.271Z" style="fill:#d9d9d9;"/></g></g></g></svg>