<?xml version="1.0" encoding="UTF-8" standalone="no"?><!DOCTYPE svg PUBLIC "-//W3C//DTD SVG 1.1//EN" "http://www.w3.org/Graphics/SVG/1.1/DTD/svg11.dtd"><svg width="100%" height="100%" viewBox="0 0 64 64" version="1.1" xmlns="http://www.w3.org/2000/svg" xmlns:xlink="http://www.w3.org/1999/xlink" xml:space="preserve" xmlns:serif="http://www.serif.com/" style="fill-rule:evenodd;clip-rule:evenodd;stroke-linejoin:round;stroke-miterlimit:1.41421;"><g id="Cat"><path d="M0,57.009l0,-57.009l64,0l0,57.888c-4.917,-6.499 -17.56,-11.125 -32.357,-11.125c-14.11,0 -26.261,4.206 -31.643,10.246Z" style="fill:#63a7e2;"/><g><path d="M0,57.009c5.382,-6.04 17.533,-10.246 31.643,-10.246c14.797,0 27.44,4.626 32.357,11.125l0,6.112l-64,0l0,-6.991Z" style="fill:#fff;"/><g><path d="M52.5,38c1.725,7.046 1.549,12.57 1.16,13.373c-4.355,0.966 -17.965,-1.444 -19.66,-4.61c1.846,-3.208 13.19,-7.654 18.5,-8.763Z" style="fill:#fff;"/><path d="M44.157,44.118c1.801,-2.335 4.507,-4.75 7.993,-5.479c1.494,6.1 1.266,11.586 0.929,12.28c-2.573,0.571 -5.779,-0.528 -8.021,-2.155l-0.031,-0.114l3.151,0.862l-2.079,-1.431l2.52,0.039l-1.679,-0.674l4.41,-0.329l-3.857,-0.329l2.814,-0.674l-2.587,0.039l4.488,-1.431l-4.601,0.862l2.353,-1.208l-2.8,0.743l3.363,-2.151l-4.113,1.822l1.263,-1.417l-2.264,1.247l1.337,-2.294l-2.522,2.294l-0.067,-0.502Z" style="fill:#d9d9d9;"/></g><g><path d="M10.419,38c-1.725,7.046 -1.549,12.57 -1.16,13.373c4.354,0.966 17.965,-1.444 19.66,-4.61c-1.847,-3.208 -13.19,-7.654 -18.5,-8.763Z" style="fill:#fff;"/><path d="M18.762,44.118c-1.801,-2.335 -4.507,-4.75 -7.993,-5.479c-1.494,6.1 -1.266,11.586 -0.93,12.28c2.574,0.571 5.78,-0.528 8.022,-2.155l0.031,-0.114l-3.151,0.862l2.079,-1.431l-2.52,0.039l1.679,-0.674l-4.41,-0.329l3.857,-0.329l-2.814,-0.674l2.586,0.039l-4.487,-1.431l4.601,0.862l-2.354,-1.208l2.801,0.743l-3.363,-2.151l4.113,1.822l-1.263,-1.417l2.264,1.247l-1.337,-2.294l2.522,2.294l0.067,-0.502Z" style="fill:#d9d9d9;"/></g></g></g></svg>